custom-analysis
version=1
nRows=16
nColumns=42
inDegrees=no

This file contains tibia displacement and acting force.

Units are S.I. units (seconds, meters, Newtons, ...)
Angles are in degrees.

endheader
time	APT	SIT	knee_angle	aACL_R_force	pACL_R_force	aPCL_R_force	pPCL_R_force	aMCL_R_force	mMCL_R_force	pMCL_R_force	aLCL_R_force	mLCL_R_force	pLCL_R_force	aACL_R_length	pACL_R_length	aPCL_R_length	pPCL_R_length	aMCL_R_length	mMCL_R_length	pMCL_R_length	aLCL_R_length	mLCL_R_length	pLCL_R_length	aACL_R_strain	pACL_R_strain	aPCL_R_strain	pPCL_R_strain	aMCL_R_strain	mMCL_R_strain	pMCL_R_strain	aLCL_R_strain	mLCL_R_strain	pLCL_R_strain	femur_lat_meniscii_force_r	femur_lat_meniscii_torque_r	femur_med_meniscii_force_r	femur_med_meniscii_torque_r	femur_lat_tibia_force_r	femur_lat_tibia_torque_r	femur_med_tibia_force_r	femur_med_tibia_torque_r
      0.74144780	      0.00338588	     -0.00210777	     60.00037120	     44.01556847	     11.21373264	    772.88128916	    368.23365986	     48.15719379	      9.77093494	      0.00000000	      0.00000000	      0.00000000	      0.00000000	      0.03334154	      0.02618084	      0.03608712	      0.03285162	      0.06313210	      0.06188644	      0.05834131	      0.05401093	      0.04914142	      0.04445703	      0.07534261	      0.03242033	      0.16053290	      0.09185861	      0.08797806	      0.03500272	     -0.03930125	     -0.03512632	     -0.12743890	     -0.15065459	    368.44864118	    146.38191759	    893.50119561	    360.01754853	      0.00000000	      0.00000000	      0.00000000	      0.00000000
      0.74208930	      0.00338835	     -0.00210882	     60.00037120	     43.97896819	     11.12569957	    772.58039563	    367.51053386	     47.69569319	      9.28691374	      0.00000000	      0.00000000	      0.00000000	      0.00000000	      0.03334385	      0.02618275	      0.03608693	      0.03285143	      0.06313357	      0.06188775	      0.05834253	      0.05401139	      0.04914185	      0.04445728	      0.07541741	      0.03249556	      0.16052676	      0.09185228	      0.08800328	      0.03502464	     -0.03928119	     -0.03511801	     -0.12743127	     -0.15064982	    373.78456574	    148.54776555	    905.85754736	    365.01215032	      0.00000000	      0.00000000	      0.00000000	      0.00000000
      0.74273080	      0.00339082	     -0.00210960	     60.00037120	     44.12870948	     11.27489505	    772.78015249	    368.17443647	     48.11100861	      9.71823168	      0.00000000	      0.00000000	      0.00000000	      0.00000000	      0.03334603	      0.02618451	      0.03608647	      0.03285097	      0.06313476	      0.06188878	      0.05834348	      0.05401157	      0.04914199	      0.04445725	      0.07548753	      0.03256503	      0.16051197	      0.09183704	      0.08802389	      0.03504202	     -0.03926565	     -0.03511478	     -0.12742869	     -0.15065045	    368.07774862	    146.23943919	    893.19333552	    359.92623399	      0.00000000	      0.00000000	      0.00000000	      0.00000000
      0.74337230	      0.00339310	     -0.00211059	     60.00037120	     44.05285141	     11.14678514	    772.47355812	    367.42962061	     47.61338314	      9.19956595	      0.00000000	      0.00000000	      0.00000000	      0.00000000	      0.03334823	      0.02618634	      0.03608630	      0.03285081	      0.06313614	      0.06189002	      0.05834462	      0.05401201	      0.04914240	      0.04445749	      0.07555865	      0.03263722	      0.16050656	      0.09183148	      0.08804764	      0.03506269	     -0.03924674	     -0.03510695	     -0.12742150	     -0.15064591	    373.63850809	    148.49198930	    906.06855603	    365.10995189	      0.00000000	      0.00000000	      0.00000000	      0.00000000
      0.74401380	      0.00339540	     -0.00211131	     60.00037120	     44.19334367	     11.28319011	    772.67827716	    368.09913642	     48.04329023	      9.64449677	      0.00000000	      0.00000000	      0.00000000	      0.00000000	      0.03335026	      0.02618799	      0.03608586	      0.03285037	      0.06313725	      0.06189098	      0.05834550	      0.05401216	      0.04914252	      0.04445744	      0.07562413	      0.03270229	      0.16049251	      0.09181704	      0.08806675	      0.03507880	     -0.03923236	     -0.03510424	     -0.12741940	     -0.15064681	    368.31305829	    146.34251033	    893.25273807	    359.92674621	      0.00000000	      0.00000000	      0.00000000	      0.00000000
      0.74465530	      0.00339754	     -0.00211224	     60.00037120	     44.12441071	     11.16129996	    772.38853979	    367.39394195	     47.58627410	      9.16610176	      0.00000000	      0.00000000	      0.00000000	      0.00000000	      0.03335233	      0.02618970	      0.03608571	      0.03285022	      0.06313855	      0.06189215	      0.05834658	      0.05401257	      0.04914289	      0.04445766	      0.07569066	      0.03276975	      0.16048753	      0.09181196	      0.08808915	      0.03509832	     -0.03921449	     -0.03509699	     -0.12741275	     -0.15064265	    373.57963913	    148.47772302	    905.40067910	    364.82252208	      0.00000000	      0.00000000	      0.00000000	      0.00000000
      0.74529680	      0.00339970	     -0.00211292	     60.00037120	     44.25330713	     11.28651839	    772.58249968	    368.02642614	     47.98958093	      9.58379309	      0.00000000	      0.00000000	      0.00000000	      0.00000000	      0.03335423	      0.02619124	      0.03608530	      0.03284982	      0.06313960	      0.06189306	      0.05834741	      0.05401271	      0.04914300	      0.04445761	      0.07575189	      0.03283043	      0.16047443	      0.09179851	      0.08810725	      0.03511360	     -0.03920083	     -0.03509454	     -0.12741087	     -0.15064359	    368.62570777	    146.43562151	    893.18095152	    359.88870634	      0.00000000	      0.00000000	      0.00000000	      0.00000000
      0.74593830	      0.00340173	     -0.00211380	     60.00037120	     44.19556194	     11.17350985	    772.30635963	    367.35321402	     47.57553210	      9.14707091	      0.00000000	      0.00000000	      0.00000000	      0.00000000	      0.03335616	      0.02619283	      0.03608516	      0.03284967	      0.06314084	      0.06189418	      0.05834845	      0.05401308	      0.04914335	      0.04445781	      0.07581429	      0.03289338	      0.16046979	      0.09179381	      0.08812859	      0.03513221	     -0.03918376	     -0.03508778	     -0.12740468	     -0.15063977	    373.64974138	    148.46509555	    904.79004548	    364.57987818	      0.00000000	      0.00000000	      0.00000000	      0.00000000
      0.74657980	      0.00340381	     -0.00211445	     60.00037120	     44.32137901	     11.29358653	    772.49206466	    367.95764170	     47.97056241	      9.55477963	      0.00000000	      0.00000000	      0.00000000	      0.00000000	      0.03335795	      0.02619427	      0.03608477	      0.03284929	      0.06314185	      0.06189506	      0.05834926	      0.05401321	      0.04914344	      0.04445776	      0.07587198	      0.03294999	      0.16045737	      0.09178108	      0.08814611	      0.03514701	     -0.03917048	     -0.03508551	     -0.12740295	     -0.15064075	    368.84345228	    146.52616154	    893.32632502	    359.97242448	      0.00000000	      0.00000000	      0.00000000	      0.00000000
      0.74722130	      0.00340576	     -0.00211529	     60.00037120	     44.26078620	     11.18529338	    772.23242088	    367.32384423	     47.56245714	      9.12706270	      0.00000000	      0.00000000	      0.00000000	      0.00000000	      0.03335977	      0.02619576	      0.03608464	      0.03284916	      0.06314305	      0.06189613	      0.05835026	      0.05401357	      0.04914377	      0.04445794	      0.07593070	      0.03300882	      0.16045313	      0.09177680	      0.08816665	      0.03516494	     -0.03915401	     -0.03507912	     -0.12739711	     -0.15063715	    373.59513436	    148.45267013	    904.28158756	    364.38853038	      0.00000000	      0.00000000	      0.00000000	      0.00000000
      0.74799242	      0.00340815	     -0.00211593	     60.00037120	     44.47739331	     11.41850299	    772.62684855	    368.51717245	     48.32243362	      9.91645859	      0.00000000	      0.00000000	      0.00000000	      0.00000000	      0.03336174	      0.02619733	      0.03608411	      0.03284864	      0.06314413	      0.06189706	      0.05835110	      0.05401361	      0.04914378	      0.04445778	      0.07599442	      0.03307056	      0.16043604	      0.09175932	      0.08818528	      0.03518049	     -0.03914017	     -0.03507840	     -0.12739699	     -0.15064026	    364.25434202	    144.67991957	    882.08337203	    355.46019425	      0.00000000	      0.00000000	      0.00000000	      0.00000000
      0.74855334	      0.00340969	     -0.00211676	     60.00037120	     44.32904842	     11.20349663	    772.13312252	    367.21838955	     47.49967618	      9.05576164	      0.00000000	      0.00000000	      0.00000000	      0.00000000	      0.03336329	      0.02619862	      0.03608415	      0.03284869	      0.06314524	      0.06189808	      0.05835206	      0.05401405	      0.04914419	      0.04445808	      0.07604435	      0.03312139	      0.16043757	      0.09176101	      0.08820442	      0.03519751	     -0.03912434	     -0.03507061	     -0.12738965	     -0.15063453	    374.15506826	    148.69098616	    905.08795338	    364.68977069	      0.00000000	      0.00000000	      0.00000000	      0.00000000
      0.74911425	      0.00341133	     -0.00211727	     60.00037120	     44.44102387	     11.31402338	    772.28122451	    367.69813552	     47.81496173	      9.38112096	      0.00000000	      0.00000000	      0.00000000	      0.00000000	      0.03336470	      0.02619975	      0.03608386	      0.03284839	      0.06314605	      0.06189879	      0.05835271	      0.05401413	      0.04914426	      0.04445803	      0.07608978	      0.03316601	      0.16042795	      0.09175121	      0.08821844	      0.03520940	     -0.03911364	     -0.03506902	     -0.12738849	     -0.15063550	    370.37674235	    147.16607761	    895.92848044	    361.01423473	      0.00000000	      0.00000000	      0.00000000	      0.00000000
      0.74988197	      0.00341345	     -0.00211816	     60.00037120	     44.50895630	     11.34431990	    772.01995732	    367.08102124	     47.48622996	      9.02852522	      0.00000000	      0.00000000	      0.00000000	      0.00000000	      0.03336674	      0.02620144	      0.03608366	      0.03284820	      0.06314733	      0.06189994	      0.05835377	      0.05401446	      0.04914455	      0.04445817	      0.07615550	      0.03323259	      0.16042168	      0.09174494	      0.08824050	      0.03522860	     -0.03909611	     -0.03506322	     -0.12738330	     -0.15063287	    374.94628075	    148.99918863	    904.79496774	    364.53975029	      0.00000000	      0.00000000	      0.00000000	      0.00000000
      0.75064968	      0.00341570	     -0.00211872	     60.00037120	     44.83545250	     11.70201835	    772.49823043	    368.51748889	     48.44757492	     10.02306755	      0.00000000	      0.00000000	      0.00000000	      0.00000000	      0.03336877	      0.02620311	      0.03608305	      0.03284760	      0.06314829	      0.06190076	      0.05835449	      0.05401439	      0.04914445	      0.04445790	      0.07622095	      0.03329866	      0.16040209	      0.09172497	      0.08825706	      0.03524225	     -0.03908429	     -0.03506448	     -0.12738516	     -0.15063800	    363.65018736	    144.44613484	    877.91311371	    353.73363366	      0.00000000	      0.00000000	      0.00000000	      0.00000000
      0.75118651	      0.00341707	     -0.00211954	     60.00037120	     44.66479157	     11.46149938	    771.95745923	    367.09216286	     47.53729441	      9.07249740	      0.00000000	      0.00000000	      0.00000000	      0.00000000	      0.03337036	      0.02620450	      0.03608311	      0.03284767	      0.06314935	      0.06190173	      0.05835540	      0.05401481	      0.04914484	      0.04445819	      0.07627241	      0.03335356	      0.16040406	      0.09172717	      0.08827526	      0.03525851	     -0.03906929	     -0.03505702	     -0.12737814	     -0.15063246	    374.54137284	    148.85596939	    903.17902779	    363.91958276	      0.00000000	      0.00000000	      0.00000000	      0.00000000
